Coordinates
version=1
nRows=26
nColumns=18
inDegrees=yes

Units are S.I. units (second, meters, Newtons, ...)
If the header above contains a line with 'inDegrees', this indicates whether rotational values are in degrees (yes) or radians (no).

endheader
time	ground_thorax_rot_x	ground_thorax_rot_y	ground_thorax_rot_z	ground_thorax_tx	ground_thorax_ty	ground_thorax_tz	clav_prot	clav_elev	scapula_abduction	scapula_elevation	scapula_upward_rot	scapula_winging	plane_elv	shoulder_elv	axial_rot	elbow_flexion	pro_sup
      4.23000000	     -3.79179188	    -11.05956788	     -8.02810380	     -0.00652581	      0.00525965	     -0.00223037	    -38.63590901	      9.45838675	     -1.28400247	     -2.11235766	     69.24889632	    -10.41785655	     36.54828633	    100.63436764	    -12.09311535	      0.00000000	     34.32000000
      4.24000000	     -3.79284360	    -11.06021667	     -8.02805993	     -0.00651633	      0.00533646	     -0.00232107	    -38.63621240	      9.45861380	     -1.28406407	     -2.11220263	     69.24953106	    -10.41802068	     36.54852830	    100.63487226	    -12.09287381	      0.00000000	     34.32000000
      4.25000000	     -3.81861085	    -11.09961083	     -8.02113725	     -0.00648971	      0.00537944	     -0.00232531	    -38.64479510	      9.46054110	     -1.29562349	     -2.11141191	     69.25398755	    -10.42242019	     36.55360539	    100.63578918	    -12.07743979	      0.00000000	     34.32000000
      4.26000000	     -3.84711558	    -11.21515717	     -8.03344684	     -0.00649245	      0.00538305	     -0.00223684	    -38.64872052	      9.46847450	     -1.32332026	     -2.10726119	     69.23133315	    -10.42760498	     36.59425145	    100.59182362	    -12.03494434	      0.00000000	     34.32000000
      4.27000000	     -3.84719893	    -11.21582581	     -8.03275830	     -0.00656095	      0.00540347	     -0.00223465	    -38.64902800	      9.46824427	     -1.32363040	     -2.10743512	     69.23151293	    -10.42769057	     36.59394349	    100.59198262	    -12.03478064	      0.00000000	     34.32000000
      4.28000000	     -3.85437479	    -11.23005073	     -8.01621396	     -0.00654631	      0.00546928	     -0.00221840	    -38.65505414	      9.46679655	     -1.32857621	     -2.10866575	     69.23749530	    -10.42994514	     36.59367078	    100.59220383	    -12.03013262	      0.00000000	     34.32000000
      4.29000000	     -3.85537809	    -11.23080082	     -8.01594122	     -0.00659559	      0.00551391	     -0.00227591	    -38.65542555	      9.46701118	     -1.32871980	     -2.10852321	     69.23816718	    -10.43013776	     36.59389366	    100.59256714	    -12.03002649	      0.00000000	     34.32000000
      4.30000000	     -3.87473431	    -11.25959278	     -7.99910426	     -0.00662093	      0.00545619	     -0.00222789	    -38.66341156	      9.46737203	     -1.33070435	     -2.10835106	     69.25244647	    -10.43328064	     36.61511713	    100.58363687	    -12.02567443	      0.00000000	     34.32000000
      4.31000000	     -3.87415092	    -11.26053894	     -7.99818881	     -0.00668084	      0.00537176	     -0.00225538	    -38.66369728	      9.46676289	     -1.33103818	     -2.10878864	     69.25241826	    -10.43327842	     36.61513299	    100.58341447	    -12.02562320	      0.00000000	     34.32000000
      4.32000000	     -3.86738726	    -11.41038874	     -7.92874288	     -0.00660192	      0.00555646	     -0.00210039	    -38.71894266	      9.39492066	     -1.31740642	     -2.15771704	     69.35815962	    -10.43688120	     36.80740794	    100.34360003	    -11.95531416	      0.00000000	     34.32000000
      4.33000000	     -3.86802979	    -11.41100084	     -7.92838229	     -0.00662898	      0.00560258	     -0.00215334	    -38.71936960	      9.39502172	     -1.31773748	     -2.15766170	     69.35867909	    -10.43708354	     36.80708275	    100.34398709	    -11.95518154	      0.00000000	     34.32000000
      4.34000000	     -3.87559220	    -11.42721263	     -7.91129581	     -0.00658435	      0.00568002	     -0.00212063	    -38.73167347	      9.39686589	     -1.33455258	     -2.15717295	     69.36443873	    -10.44322547	     36.78364206	    100.34687415	    -11.95000826	      0.00000000	     34.32000000
      4.35000000	     -3.88294409	    -11.44140642	     -7.89919655	     -0.00654567	      0.00575625	     -0.00210530	    -38.74363863	      9.40448363	     -1.35479108	     -2.15285444	     69.36736694	    -10.45077373	     36.75426643	    100.34629600	    -11.94493336	      0.00000000	     34.32000000
      4.36000000	     -3.89777922	    -11.45347380	     -7.89392929	     -0.00653329	      0.00578026	     -0.00210393	    -38.75733377	      9.42188132	     -1.37913873	     -2.14195743	     69.37235204	    -10.46138238	     36.72055021	    100.34303164	    -11.93906846	      0.00000000	     34.32000000
      4.37000000	     -3.89783733	    -11.45368261	     -7.89392576	     -0.00656026	      0.00578722	     -0.00211517	    -38.75751992	      9.42209230	     -1.37949861	     -2.14182843	     69.37237567	    -10.46152319	     36.72011190	    100.34291850	    -11.93899246	      0.00000000	     34.32000000
      4.38000000	     -3.88333437	    -11.45792947	     -7.88954973	     -0.00652788	      0.00576514	     -0.00211740	    -38.76339952	      9.42670800	     -1.39834433	     -2.13954631	     69.36331567	    -10.46608672	     36.69541064	    100.32908344	    -11.93512475	      0.00000000	     34.32000000
      4.39000000	     -3.86498009	    -11.46551347	     -7.87835564	     -0.00652301	      0.00575356	     -0.00210083	    -38.77150263	      9.42640417	     -1.42100130	     -2.14085622	     69.35250728	    -10.47068572	     36.66954905	    100.31533017	    -11.93114667	      0.00000000	     34.32000000
      4.40000000	     -3.83596311	    -11.48260346	     -7.85491201	     -0.00655037	      0.00575996	     -0.00207706	    -38.78312665	      9.41799490	     -1.45234228	     -2.14819882	     69.33557792	    -10.47547904	     36.63426436	    100.29928202	    -11.92735430	      0.00000000	     34.32000000
      4.41000000	     -3.79500003	    -11.49927428	     -7.82046667	     -0.00652945	      0.00577934	     -0.00201460	    -38.79750553	      9.40218478	     -1.49071570	     -2.16099689	     69.31316145	    -10.48016539	     36.58503474	    100.27930302	    -11.92357690	      0.00000000	     34.32000000
      4.42000000	     -3.74876052	    -11.50954018	     -7.77918430	     -0.00646567	      0.00584522	     -0.00193866	    -38.81445017	      9.38349533	     -1.53507857	     -2.17608016	     69.28777610	    -10.48561513	     36.51915634	    100.25595007	    -11.91972831	      0.00000000	     34.32000000
      4.43000000	     -3.82093072	    -11.25197261	     -7.77780102	     -0.00650469	      0.00566239	     -0.00217318	    -38.95064571	      9.45169422	     -1.78927643	     -2.14100204	     69.28550455	    -10.56918459	     36.18483579	    100.07860199	    -11.90141836	      0.00000000	     34.32000000
      4.44000000	     -3.70328621	    -10.67655832	     -7.80986361	     -0.00659049	      0.00579363	     -0.00221733	    -39.64890893	      9.45345892	     -2.78785142	     -2.18693019	     69.51482256	    -10.91086755	     36.39532115	     99.61130617	    -12.00274959	      0.00000000	     34.32000000
      4.45000000	     -3.69312491	    -10.62561909	     -7.77212127	     -0.00657850	      0.00581186	     -0.00223068	    -39.67346946	      9.53049862	     -2.93213764	     -2.14078185	     69.41710602	    -10.94844365	     36.15802325	     99.55880072	    -11.99983189	      0.00000000	     34.32000000
      4.46000000	     -3.68017588	    -10.56233216	     -7.74328921	     -0.00656014	      0.00583194	     -0.00228081	    -39.71715651	      9.58340479	     -3.08566263	     -2.11168172	     69.33900745	    -10.98876683	     35.91868876	     99.47507116	    -11.99944817	      0.00000000	     34.32000000
      4.47000000	     -3.59710939	    -10.60224570	     -7.69023090	     -0.00652946	      0.00603377	     -0.00219239	    -39.73112339	      9.55691958	     -3.14671628	     -2.13297709	     69.28367396	    -10.99294449	     35.82261052	     99.43717209	    -11.99698868	      0.00000000	     34.32000000
      4.48000000	     -3.64756902	    -10.27674756	     -7.75915982	     -0.00654272	      0.00585037	     -0.00234471	    -40.02329991	      9.54545517	     -3.60873832	     -2.16298661	     69.31799671	    -11.14088062	     35.53406706	     99.13320082	    -12.03880064	      0.00000000	     34.32000000
